{
	"asset":{
		"generator":"Khronos glTF Blender I/O v5.2.39",
		"version":"2.0"
	},
	"scene":0,
	"scenes":[
		{
			"name":"Scene",
			"nodes":[
				0,
				1,
				2,
				3,
				4,
				5,
				6,
				7,
				8,
				9,
				10,
				11,
				12,
				13,
				14,
				15,
				16
			]
		}
	],
	"nodes":[
		{
			"camera":0,
			"name":"Camera",
			"scale":[
				0.7100000381469727,
				1,
				1
			],
			"translation":[
				0,
				0.1941571831703186,
				7.605789661407471
			]
		},
		{
			"mesh":0,
			"name":"\u73af\u4f53",
			"rotation":[
				0.45726969838142395,
				0.08272586762905121,
				0.426967591047287,
				0.77573162317276
			],
			"scale":[
				0.18188261985778809,
				0.18188261985778809,
				0.18188261985778809
			],
			"translation":[
				-0.9141139388084412,
				-0.019716907292604446,
				0.7152510285377502
			]
		},
		{
			"mesh":1,
			"name":"\u73af\u4f53.001",
			"rotation":[
				-0.2097795456647873,
				0.00876125693321228,
				-0.2195073813199997,
				0.9527498483657837
			],
			"scale":[
				0.6084494590759277,
				0.4896338880062103,
				0.6084496974945068
			],
			"translation":[
				0.24360747635364532,
				1.5238046646118164,
				-0.27256906032562256
			]
		},
		{
			"mesh":2,
			"name":"\u73af\u4f53.002",
			"rotation":[
				-0.20977957546710968,
				0.008761262521147728,
				-0.2195073813199997,
				0.9527498483657837
			],
			"scale":[
				0.3235926032066345,
				0.2670588791370392,
				0.3235926330089569
			],
			"translation":[
				0.38781651854515076,
				1.8677438497543335,
				-0.44279730319976807
			]
		},
		{
			"mesh":3,
			"name":"\u73af\u4f53.006",
			"rotation":[
				-0.20977957546710968,
				0.008761262521147728,
				-0.2195073813199997,
				0.9527498483657837
			],
			"scale":[
				0.8584005236625671,
				0.7381947636604309,
				0.7962214946746826
			],
			"translation":[
				-0.08005978912115097,
				1.092589020729065,
				-0.050427086651325226
			]
		},
		{
			"mesh":4,
			"name":"\u73af\u4f53.009",
			"rotation":[
				0.09320171177387238,
				-0.09256595373153687,
				0.19098447263240814,
				0.9727640748023987
			],
			"scale":[
				0.7841888666152954,
				0.7841887474060059,
				0.7841889262199402
			],
			"translation":[
				0.087436243891716,
				-0.7163596153259277,
				-0.003913808614015579
			]
		},
		{
			"mesh":5,
			"name":"\u73af\u4f53.010",
			"rotation":[
				0.09170208126306534,
				-0.03324860334396362,
				0.19985844194889069,
				0.9749573469161987
			],
			"scale":[
				1.0591871738433838,
				0.8569809794425964,
				1.0591871738433838
			],
			"translation":[
				0.2040959745645523,
				-1.0878560543060303,
				-0.11354804039001465
			]
		},
		{
			"mesh":6,
			"name":"\u7403\u4f53",
			"rotation":[
				-0.07005231082439423,
				-0.9975433349609375,
				0,
				9.412147505827306e-09
			],
			"scale":[
				-0.9999999403953552,
				-1.0981652736663818,
				-1
			],
			"translation":[
				-0.42617231607437134,
				0.33254775404930115,
				0
			]
		},
		{
			"mesh":7,
			"name":"\u7403\u4f53.001",
			"scale":[
				0.31053316593170166,
				0.31053316593170166,
				0.31053316593170166
			],
			"translation":[
				-0.312765896320343,
				0.5580167770385742,
				0.8801543712615967
			]
		},
		{
			"mesh":8,
			"name":"\u7403\u4f53.002",
			"scale":[
				0.31053316593170166,
				0.31053316593170166,
				0.31053316593170166
			],
			"translation":[
				-1.1443989276885986,
				0.8023611307144165,
				0.5030103921890259
			]
		},
		{
			"mesh":9,
			"name":"\u7403\u4f53.003",
			"scale":[
				0.1626940220594406,
				0.1626940220594406,
				0.1626940220594406
			],
			"translation":[
				-0.19860707223415375,
				0.45753026008605957,
				1.080349326133728
			]
		},
		{
			"mesh":10,
			"name":"\u7403\u4f53.004",
			"scale":[
				0.13409490883350372,
				0.13409490883350372,
				0.13409490883350372
			],
			"translation":[
				-1.1063393354415894,
				0.7419609427452087,
				0.7533544898033142
			]
		},
		{
			"mesh":11,
			"name":"\u7403\u4f53.005",
			"scale":[
				0.15911418199539185,
				0.15911418199539185,
				0.15911418199539185
			],
			"translation":[
				0.6073743104934692,
				-0.10532842576503754,
				0.08658158034086227
			]
		},
		{
			"mesh":12,
			"name":"\u7acb\u65b9\u4f53",
			"rotation":[
				0.3298700749874115,
				0.386161744594574,
				0.36357253789901733,
				0.7809480428695679
			],
			"scale":[
				0.2872859537601471,
				0.1966361403465271,
				0.08920858055353165
			],
			"translation":[
				-0.850125253200531,
				0.33542901277542114,
				0.7680724263191223
			]
		},
		{
			"mesh":13,
			"name":"\u7acb\u65b9\u4f53.001",
			"rotation":[
				-0.06745240092277527,
				0.9193463325500488,
				0.1745108962059021,
				0.34611910581588745
			],
			"scale":[
				0.4191032648086548,
				1.7625209093093872,
				0.12338344752788544
			],
			"translation":[
				0.8279330134391785,
				0.03388172760605812,
				-0.9723505973815918
			]
		},
		{
			"mesh":14,
			"name":"\u7acb\u65b9\u4f53.002",
			"rotation":[
				-0.06745240092277527,
				0.9193463325500488,
				0.1745108813047409,
				0.34611913561820984
			],
			"scale":[
				0.5476358532905579,
				0.5458608269691467,
				0.12338344752788544
			],
			"translation":[
				1.1554749011993408,
				-1.5012065172195435,
				-1.3831020593643188
			]
		},
		{
			"mesh":15,
			"name":"\u9525\u4f53",
			"rotation":[
				-0.01394279021769762,
				0.0016626615542918444,
				0.07813149690628052,
				0.9968441724777222
			],
			"scale":[
				1.291094422340393,
				1.1290634870529175,
				1.1205859184265137
			],
			"translation":[
				0.21696573495864868,
				-1.3720241785049438,
				0
			]
		}
	],
	"cameras":[
		{
			"name":"Camera",
			"perspective":{
				"aspectRatio":1,
				"yfov":0.56510990858078,
				"zfar":100,
				"znear":0.10000000149011612
			},
			"type":"perspective"
		}
	],
	"materials":[
		{
			"doubleSided":true,
			"name":"\u6750\u8d28.002",
			"pbrMetallicRoughness":{
				"baseColorFactor":[
					0.8000074625015259,
					0.14867356419563293,
					0.12523852288722992,
					1
				],
				"metallicFactor":0,
				"roughnessFactor":0.5
			}
		},
		{
			"doubleSided":true,
			"name":"yellow",
			"pbrMetallicRoughness":{
				"baseColorFactor":[
					0.8000074625015259,
					0.6294844746589661,
					0.055524688214063644,
					1
				],
				"metallicFactor":0,
				"roughnessFactor":0.5
			}
		},
		{
			"doubleSided":true,
			"name":"\u6750\u8d28",
			"pbrMetallicRoughness":{
				"baseColorFactor":[
					0.7991030812263489,
					0.25818297266960144,
					0.06301002949476242,
					1
				],
				"metallicFactor":0,
				"roughnessFactor":0.5
			}
		},
		{
			"doubleSided":true,
			"name":"blue",
			"pbrMetallicRoughness":{
				"baseColorFactor":[
					0.080403633415699,
					0.17422857880592346,
					0.8000156879425049,
					1
				],
				"metallicFactor":0.5376884341239929,
				"roughnessFactor":0.4547739028930664
			}
		},
		{
			"doubleSided":true,
			"name":"\u6750\u8d28.005",
			"pbrMetallicRoughness":{
				"baseColorFactor":[
					0.800000011920929,
					0.800000011920929,
					0.800000011920929,
					1
				],
				"metallicFactor":0.5778894424438477,
				"roughnessFactor":0.42462313175201416
			}
		},
		{
			"doubleSided":true,
			"name":"\u6750\u8d28.004",
			"pbrMetallicRoughness":{
				"baseColorFactor":[
					0.479320228099823,
					0.15896087884902954,
					0.05951125547289848,
					1
				],
				"metallicFactor":0,
				"roughnessFactor":0.5
			}
		},
		{
			"doubleSided":true,
			"name":"skin",
			"pbrMetallicRoughness":{
				"baseColorFactor":[
					0.8000156879425049,
					0.5185711979866028,
					0.4366897940635681,
					1
				],
				"metallicFactor":0,
				"roughnessFactor":0.5
			}
		},
		{
			"doubleSided":true,
			"name":"\u6750\u8d28.001",
			"pbrMetallicRoughness":{
				"baseColorFactor":[
					0.800000011920929,
					0.800000011920929,
					0.800000011920929,
					1
				],
				"metallicFactor":0,
				"roughnessFactor":0.20854268968105316
			}
		},
		{
			"doubleSided":true,
			"name":"black",
			"pbrMetallicRoughness":{
				"baseColorFactor":[
					0,
					0,
					0,
					1
				],
				"metallicFactor":0,
				"roughnessFactor":0.5
			}
		},
		{
			"doubleSided":true,
			"name":"\u6750\u8d28.003",
			"pbrMetallicRoughness":{
				"baseColorFactor":[
					0.8000074625015259,
					0.3015645742416382,
					0.03817252442240715,
					1
				],
				"metallicFactor":0,
				"roughnessFactor":0.5
			}
		}
	],
	"meshes":[
		{
			"name":"\u73af\u4f53",
			"primitives":[
				{
					"attributes":{
						"POSITION":0,
						"NORMAL":1,
						"TEXCOORD_0":2
					},
					"indices":3,
					"material":0
				}
			]
		},
		{
			"name":"\u73af\u4f53.007",
			"primitives":[
				{
					"attributes":{
						"POSITION":4,
						"NORMAL":5,
						"TEXCOORD_0":6
					},
					"indices":7,
					"material":1
				}
			]
		},
		{
			"name":"\u73af\u4f53.008",
			"primitives":[
				{
					"attributes":{
						"POSITION":8,
						"NORMAL":9,
						"TEXCOORD_0":10
					},
					"indices":7,
					"material":2
				}
			]
		},
		{
			"name":"\u73af\u4f53.006",
			"primitives":[
				{
					"attributes":{
						"POSITION":11,
						"NORMAL":12,
						"TEXCOORD_0":13
					},
					"indices":14,
					"material":3
				}
			]
		},
		{
			"name":"\u73af\u4f53.009",
			"primitives":[
				{
					"attributes":{
						"POSITION":15,
						"NORMAL":16,
						"TEXCOORD_0":17
					},
					"indices":18,
					"material":4
				}
			]
		},
		{
			"name":"\u73af\u4f53.010",
			"primitives":[
				{
					"attributes":{
						"POSITION":19,
						"NORMAL":20,
						"TEXCOORD_0":21
					},
					"indices":18,
					"material":5
				}
			]
		},
		{
			"name":"\u7403\u4f53.001",
			"primitives":[
				{
					"attributes":{
						"POSITION":22,
						"NORMAL":23,
						"TEXCOORD_0":24
					},
					"indices":25,
					"material":6
				}
			]
		},
		{
			"name":"\u7403\u4f53",
			"primitives":[
				{
					"attributes":{
						"POSITION":26,
						"NORMAL":27,
						"TEXCOORD_0":28
					},
					"indices":29,
					"material":7
				}
			]
		},
		{
			"name":"\u7403\u4f53.002",
			"primitives":[
				{
					"attributes":{
						"POSITION":30,
						"NORMAL":31,
						"TEXCOORD_0":32
					},
					"indices":33
				}
			]
		},
		{
			"name":"\u7403\u4f53.004",
			"primitives":[
				{
					"attributes":{
						"POSITION":34,
						"NORMAL":35,
						"TEXCOORD_0":36
					},
					"indices":29,
					"material":8
				}
			]
		},
		{
			"name":"\u7403\u4f53.005",
			"primitives":[
				{
					"attributes":{
						"POSITION":37,
						"NORMAL":38,
						"TEXCOORD_0":39
					},
					"indices":29,
					"material":8
				}
			]
		},
		{
			"name":"\u7403\u4f53.006",
			"primitives":[
				{
					"attributes":{
						"POSITION":40,
						"NORMAL":41,
						"TEXCOORD_0":42
					},
					"indices":43,
					"material":4
				}
			]
		},
		{
			"name":"\u7acb\u65b9\u4f53",
			"primitives":[
				{
					"attributes":{
						"POSITION":44,
						"NORMAL":45,
						"TEXCOORD_0":46
					},
					"indices":47,
					"material":6
				}
			]
		},
		{
			"name":"\u7acb\u65b9\u4f53.001",
			"primitives":[
				{
					"attributes":{
						"POSITION":48,
						"NORMAL":49,
						"TEXCOORD_0":50
					},
					"indices":47,
					"material":2
				}
			]
		},
		{
			"name":"\u7acb\u65b9\u4f53.002",
			"primitives":[
				{
					"attributes":{
						"POSITION":51,
						"NORMAL":52,
						"TEXCOORD_0":53
					},
					"indices":47
				}
			]
		},
		{
			"name":"\u9525\u4f53",
			"primitives":[
				{
					"attributes":{
						"POSITION":54,
						"NORMAL":55,
						"TEXCOORD_0":56
					},
					"indices":57,
					"material":9
				}
			]
		}
	],
	"accessors":[
		{
			"bufferView":0,
			"componentType":5126,
			"count":637,
			"max":[
				0.9100000262260437,
				0.23000000417232513,
				0.9100000262260437
			],
			"min":[
				-0.9100000262260437,
				-0.23000000417232513,
				-0.9100000262260437
			],
			"type":"VEC3"
		},
		{
			"bufferView":1,
			"componentType":5126,
			"count":637,
			"type":"VEC3"
		},
		{
			"bufferView":2,
			"componentType":5126,
			"count":637,
			"type":"VEC2"
		},
		{
			"bufferView":3,
			"componentType":5123,
			"count":3456,
			"type":"SCALAR"
		},
		{
			"bufferView":4,
			"componentType":5126,
			"count":2145,
			"max":[
				1.3499999046325684,
				0.8500000238418579,
				1.3499999046325684
			],
			"min":[
				-1.3499999046325684,
				-0.8500000238418579,
				-1.3499999046325684
			],
			"type":"VEC3"
		},
		{
			"bufferView":5,
			"componentType":5126,
			"count":2145,
			"type":"VEC3"
		},
		{
			"bufferView":6,
			"componentType":5126,
			"count":2145,
			"type":"VEC2"
		},
		{
			"bufferView":7,
			"componentType":5123,
			"count":12288,
			"type":"SCALAR"
		},
		{
			"bufferView":8,
			"componentType":5126,
			"count":2145,
			"max":[
				1.3499999046325684,
				0.8500000238418579,
				1.3499999046325684
			],
			"min":[
				-1.3499999046325684,
				-0.8500000238418579,
				-1.3499999046325684
			],
			"type":"VEC3"
		},
		{
			"bufferView":9,
			"componentType":5126,
			"count":2145,
			"type":"VEC3"
		},
		{
			"bufferView":10,
			"componentType":5126,
			"count":2145,
			"type":"VEC2"
		},
		{
			"bufferView":11,
			"componentType":5126,
			"count":2275,
			"max":[
				1.3499999046325684,
				0.8500000238418579,
				1.3499999046325684
			],
			"min":[
				-1.3499999046325684,
				-0.8500000238418579,
				-1.3499999046325684
			],
			"type":"VEC3"
		},
		{
			"bufferView":12,
			"componentType":5126,
			"count":2275,
			"type":"VEC3"
		},
		{
			"bufferView":13,
			"componentType":5126,
			"count":2275,
			"type":"VEC2"
		},
		{
			"bufferView":14,
			"componentType":5123,
			"count":12288,
			"type":"SCALAR"
		},
		{
			"bufferView":15,
			"componentType":5126,
			"count":2145,
			"max":[
				0.8499999642372131,
				0.21000003814697266,
				0.8499999642372131
			],
			"min":[
				-0.8499999642372131,
				-0.21000003814697266,
				-0.8499999642372131
			],
			"type":"VEC3"
		},
		{
			"bufferView":16,
			"componentType":5126,
			"count":2145,
			"type":"VEC3"
		},
		{
			"bufferView":17,
			"componentType":5126,
			"count":2145,
			"type":"VEC2"
		},
		{
			"bufferView":18,
			"componentType":5123,
			"count":12288,
			"type":"SCALAR"
		},
		{
			"bufferView":19,
			"componentType":5126,
			"count":2145,
			"max":[
				1.0699999332427979,
				0.3800000250339508,
				1.0699999332427979
			],
			"min":[
				-1.0699999332427979,
				-0.3800000250339508,
				-1.0699999332427979
			],
			"type":"VEC3"
		},
		{
			"bufferView":20,
			"componentType":5126,
			"count":2145,
			"type":"VEC3"
		},
		{
			"bufferView":21,
			"componentType":5126,
			"count":2145,
			"type":"VEC2"
		},
		{
			"bufferView":22,
			"componentType":5126,
			"count":1087,
			"max":[
				0.9999997019767761,
				1,
				0.9999993443489075
			],
			"min":[
				-0.9999990463256836,
				-1,
				-0.9999988079071045
			],
			"type":"VEC3"
		},
		{
			"bufferView":23,
			"componentType":5126,
			"count":1087,
			"type":"VEC3"
		},
		{
			"bufferView":24,
			"componentType":5126,
			"count":1087,
			"type":"VEC2"
		},
		{
			"bufferView":25,
			"componentType":5123,
			"count":5952,
			"type":"SCALAR"
		},
		{
			"bufferView":26,
			"componentType":5126,
			"count":2376,
			"max":[
				0.9872310161590576,
				0.9975767135620117,
				0.9872307181358337
			],
			"min":[
				-0.9872305393218994,
				-0.9975767135620117,
				-0.9872310161590576
			],
			"type":"VEC3"
		},
		{
			"bufferView":27,
			"componentType":5126,
			"count":2376,
			"type":"VEC3"
		},
		{
			"bufferView":28,
			"componentType":5126,
			"count":2376,
			"type":"VEC2"
		},
		{
			"bufferView":29,
			"componentType":5123,
			"count":11904,
			"type":"SCALAR"
		},
		{
			"bufferView":30,
			"componentType":5126,
			"count":559,
			"max":[
				0.9999997019767761,
				1,
				0.9999993443489075
			],
			"min":[
				-0.9999990463256836,
				-1,
				-1
			],
			"type":"VEC3"
		},
		{
			"bufferView":31,
			"componentType":5126,
			"count":559,
			"type":"VEC3"
		},
		{
			"bufferView":32,
			"componentType":5126,
			"count":559,
			"type":"VEC2"
		},
		{
			"bufferView":33,
			"componentType":5123,
			"count":2880,
			"type":"SCALAR"
		},
		{
			"bufferView":34,
			"componentType":5126,
			"count":2376,
			"max":[
				0.9872310161590576,
				0.9975767135620117,
				0.9872307181358337
			],
			"min":[
				-0.9872305393218994,
				-0.9975767135620117,
				-0.9872310161590576
			],
			"type":"VEC3"
		},
		{
			"bufferView":35,
			"componentType":5126,
			"count":2376,
			"type":"VEC3"
		},
		{
			"bufferView":36,
			"componentType":5126,
			"count":2376,
			"type":"VEC2"
		},
		{
			"bufferView":37,
			"componentType":5126,
			"count":2376,
			"max":[
				0.9872310161590576,
				0.9975767135620117,
				0.9872307181358337
			],
			"min":[
				-0.9872305393218994,
				-0.9975767135620117,
				-0.9872310161590576
			],
			"type":"VEC3"
		},
		{
			"bufferView":38,
			"componentType":5126,
			"count":2376,
			"type":"VEC3"
		},
		{
			"bufferView":39,
			"componentType":5126,
			"count":2376,
			"type":"VEC2"
		},
		{
			"bufferView":40,
			"componentType":5126,
			"count":559,
			"max":[
				0.9999997019767761,
				1,
				0.9999993443489075
			],
			"min":[
				-0.9999990463256836,
				-1,
				-1
			],
			"type":"VEC3"
		},
		{
			"bufferView":41,
			"componentType":5126,
			"count":559,
			"type":"VEC3"
		},
		{
			"bufferView":42,
			"componentType":5126,
			"count":559,
			"type":"VEC2"
		},
		{
			"bufferView":43,
			"componentType":5123,
			"count":2880,
			"type":"SCALAR"
		},
		{
			"bufferView":44,
			"componentType":5126,
			"count":24,
			"max":[
				1,
				1,
				1
			],
			"min":[
				-1,
				-1,
				-1
			],
			"type":"VEC3"
		},
		{
			"bufferView":45,
			"componentType":5126,
			"count":24,
			"type":"VEC3"
		},
		{
			"bufferView":46,
			"componentType":5126,
			"count":24,
			"type":"VEC2"
		},
		{
			"bufferView":47,
			"componentType":5123,
			"count":36,
			"type":"SCALAR"
		},
		{
			"bufferView":48,
			"componentType":5126,
			"count":24,
			"max":[
				1,
				1,
				1
			],
			"min":[
				-1,
				-1,
				-1
			],
			"type":"VEC3"
		},
		{
			"bufferView":49,
			"componentType":5126,
			"count":24,
			"type":"VEC3"
		},
		{
			"bufferView":50,
			"componentType":5126,
			"count":24,
			"type":"VEC2"
		},
		{
			"bufferView":51,
			"componentType":5126,
			"count":24,
			"max":[
				1,
				1,
				1
			],
			"min":[
				-1,
				-1,
				-1
			],
			"type":"VEC3"
		},
		{
			"bufferView":52,
			"componentType":5126,
			"count":24,
			"type":"VEC3"
		},
		{
			"bufferView":53,
			"componentType":5126,
			"count":24,
			"type":"VEC2"
		},
		{
			"bufferView":54,
			"componentType":5126,
			"count":218,
			"max":[
				1.0182743072509766,
				1,
				1.0199999809265137
			],
			"min":[
				-1.0182743072509766,
				-1,
				-1.0199999809265137
			],
			"type":"VEC3"
		},
		{
			"bufferView":55,
			"componentType":5126,
			"count":218,
			"type":"VEC3"
		},
		{
			"bufferView":56,
			"componentType":5126,
			"count":218,
			"type":"VEC2"
		},
		{
			"bufferView":57,
			"componentType":5123,
			"count":636,
			"type":"SCALAR"
		}
	],
	"bufferViews":[
		{
			"buffer":0,
			"byteLength":7644,
			"byteOffset":0,
			"target":34962
		},
		{
			"buffer":0,
			"byteLength":7644,
			"byteOffset":7644,
			"target":34962
		},
		{
			"buffer":0,
			"byteLength":5096,
			"byteOffset":15288,
			"target":34962
		},
		{
			"buffer":0,
			"byteLength":6912,
			"byteOffset":20384,
			"target":34963
		},
		{
			"buffer":0,
			"byteLength":25740,
			"byteOffset":27296,
			"target":34962
		},
		{
			"buffer":0,
			"byteLength":25740,
			"byteOffset":53036,
			"target":34962
		},
		{
			"buffer":0,
			"byteLength":17160,
			"byteOffset":78776,
			"target":34962
		},
		{
			"buffer":0,
			"byteLength":24576,
			"byteOffset":95936,
			"target":34963
		},
		{
			"buffer":0,
			"byteLength":25740,
			"byteOffset":120512,
			"target":34962
		},
		{
			"buffer":0,
			"byteLength":25740,
			"byteOffset":146252,
			"target":34962
		},
		{
			"buffer":0,
			"byteLength":17160,
			"byteOffset":171992,
			"target":34962
		},
		{
			"buffer":0,
			"byteLength":27300,
			"byteOffset":189152,
			"target":34962
		},
		{
			"buffer":0,
			"byteLength":27300,
			"byteOffset":216452,
			"target":34962
		},
		{
			"buffer":0,
			"byteLength":18200,
			"byteOffset":243752,
			"target":34962
		},
		{
			"buffer":0,
			"byteLength":24576,
			"byteOffset":261952,
			"target":34963
		},
		{
			"buffer":0,
			"byteLength":25740,
			"byteOffset":286528,
			"target":34962
		},
		{
			"buffer":0,
			"byteLength":25740,
			"byteOffset":312268,
			"target":34962
		},
		{
			"buffer":0,
			"byteLength":17160,
			"byteOffset":338008,
			"target":34962
		},
		{
			"buffer":0,
			"byteLength":24576,
			"byteOffset":355168,
			"target":34963
		},
		{
			"buffer":0,
			"byteLength":25740,
			"byteOffset":379744,
			"target":34962
		},
		{
			"buffer":0,
			"byteLength":25740,
			"byteOffset":405484,
			"target":34962
		},
		{
			"buffer":0,
			"byteLength":17160,
			"byteOffset":431224,
			"target":34962
		},
		{
			"buffer":0,
			"byteLength":13044,
			"byteOffset":448384,
			"target":34962
		},
		{
			"buffer":0,
			"byteLength":13044,
			"byteOffset":461428,
			"target":34962
		},
		{
			"buffer":0,
			"byteLength":8696,
			"byteOffset":474472,
			"target":34962
		},
		{
			"buffer":0,
			"byteLength":11904,
			"byteOffset":483168,
			"target":34963
		},
		{
			"buffer":0,
			"byteLength":28512,
			"byteOffset":495072,
			"target":34962
		},
		{
			"buffer":0,
			"byteLength":28512,
			"byteOffset":523584,
			"target":34962
		},
		{
			"buffer":0,
			"byteLength":19008,
			"byteOffset":552096,
			"target":34962
		},
		{
			"buffer":0,
			"byteLength":23808,
			"byteOffset":571104,
			"target":34963
		},
		{
			"buffer":0,
			"byteLength":6708,
			"byteOffset":594912,
			"target":34962
		},
		{
			"buffer":0,
			"byteLength":6708,
			"byteOffset":601620,
			"target":34962
		},
		{
			"buffer":0,
			"byteLength":4472,
			"byteOffset":608328,
			"target":34962
		},
		{
			"buffer":0,
			"byteLength":5760,
			"byteOffset":612800,
			"target":34963
		},
		{
			"buffer":0,
			"byteLength":28512,
			"byteOffset":618560,
			"target":34962
		},
		{
			"buffer":0,
			"byteLength":28512,
			"byteOffset":647072,
			"target":34962
		},
		{
			"buffer":0,
			"byteLength":19008,
			"byteOffset":675584,
			"target":34962
		},
		{
			"buffer":0,
			"byteLength":28512,
			"byteOffset":694592,
			"target":34962
		},
		{
			"buffer":0,
			"byteLength":28512,
			"byteOffset":723104,
			"target":34962
		},
		{
			"buffer":0,
			"byteLength":19008,
			"byteOffset":751616,
			"target":34962
		},
		{
			"buffer":0,
			"byteLength":6708,
			"byteOffset":770624,
			"target":34962
		},
		{
			"buffer":0,
			"byteLength":6708,
			"byteOffset":777332,
			"target":34962
		},
		{
			"buffer":0,
			"byteLength":4472,
			"byteOffset":784040,
			"target":34962
		},
		{
			"buffer":0,
			"byteLength":5760,
			"byteOffset":788512,
			"target":34963
		},
		{
			"buffer":0,
			"byteLength":288,
			"byteOffset":794272,
			"target":34962
		},
		{
			"buffer":0,
			"byteLength":288,
			"byteOffset":794560,
			"target":34962
		},
		{
			"buffer":0,
			"byteLength":192,
			"byteOffset":794848,
			"target":34962
		},
		{
			"buffer":0,
			"byteLength":72,
			"byteOffset":795040,
			"target":34963
		},
		{
			"buffer":0,
			"byteLength":288,
			"byteOffset":795112,
			"target":34962
		},
		{
			"buffer":0,
			"byteLength":288,
			"byteOffset":795400,
			"target":34962
		},
		{
			"buffer":0,
			"byteLength":192,
			"byteOffset":795688,
			"target":34962
		},
		{
			"buffer":0,
			"byteLength":288,
			"byteOffset":795880,
			"target":34962
		},
		{
			"buffer":0,
			"byteLength":288,
			"byteOffset":796168,
			"target":34962
		},
		{
			"buffer":0,
			"byteLength":192,
			"byteOffset":796456,
			"target":34962
		},
		{
			"buffer":0,
			"byteLength":2616,
			"byteOffset":796648,
			"target":34962
		},
		{
			"buffer":0,
			"byteLength":2616,
			"byteOffset":799264,
			"target":34962
		},
		{
			"buffer":0,
			"byteLength":1744,
			"byteOffset":801880,
			"target":34962
		},
		{
			"buffer":0,
			"byteLength":1272,
			"byteOffset":803624,
			"target":34963
		}
	],
	"buffers":[
		{
			"byteLength":804896,
			"uri":"people.bin"
		}
	]
}
