{
	"asset":{
		"generator":"Khronos glTF Blender I/O v5.2.39",
		"version":"2.0"
	},
	"scene":0,
	"scenes":[
		{
			"name":"Scene",
			"nodes":[
				0
			]
		}
	],
	"nodes":[
		{
			"mesh":0,
			"name":"\u5e73\u9762",
			"scale":[
				4.023720741271973,
				4.023720741271973,
				4.023720741271973
			],
			"translation":[
				-1.055548071861267,
				2.1829473972320557,
				3.469048500061035
			]
		}
	],
	"animations":[
		{
			"channels":[
				{
					"sampler":0,
					"target":{
						"node":0,
						"path":"translation"
					}
				},
				{
					"sampler":1,
					"target":{
						"node":0,
						"path":"rotation"
					}
				},
				{
					"sampler":2,
					"target":{
						"node":0,
						"path":"scale"
					}
				}
			],
			"name":"\u5e73\u9762\u52a8\u4f5c.001",
			"samplers":[
				{
					"input":4,
					"interpolation":"LINEAR",
					"output":5
				},
				{
					"input":6,
					"interpolation":"STEP",
					"output":7
				},
				{
					"input":6,
					"interpolation":"STEP",
					"output":8
				}
			]
		}
	],
	"meshes":[
		{
			"name":"\u5e73\u9762",
			"primitives":[
				{
					"attributes":{
						"POSITION":0,
						"NORMAL":1,
						"TEXCOORD_0":2
					},
					"indices":3
				}
			]
		}
	],
	"accessors":[
		{
			"bufferView":0,
			"componentType":5126,
			"count":495613,
			"max":[
				1.4933515787124634,
				0.35743460059165955,
				-0.5301539897918701
			],
			"min":[
				-0.5066487193107605,
				-0.40009933710098267,
				-2.5301544666290283
			],
			"type":"VEC3"
		},
		{
			"bufferView":1,
			"componentType":5126,
			"count":495613,
			"type":"VEC3"
		},
		{
			"bufferView":2,
			"componentType":5126,
			"count":495613,
			"type":"VEC2"
		},
		{
			"bufferView":3,
			"componentType":5125,
			"count":743424,
			"type":"SCALAR"
		},
		{
			"bufferView":4,
			"componentType":5126,
			"count":40,
			"max":[
				1.625
			],
			"min":[
				0
			],
			"type":"SCALAR"
		},
		{
			"bufferView":5,
			"componentType":5126,
			"count":40,
			"type":"VEC3"
		},
		{
			"bufferView":6,
			"componentType":5126,
			"count":2,
			"max":[
				1.625
			],
			"min":[
				0
			],
			"type":"SCALAR"
		},
		{
			"bufferView":7,
			"componentType":5126,
			"count":2,
			"type":"VEC4"
		},
		{
			"bufferView":8,
			"componentType":5126,
			"count":2,
			"type":"VEC3"
		}
	],
	"bufferViews":[
		{
			"buffer":0,
			"byteLength":5947356,
			"byteOffset":0,
			"target":34962
		},
		{
			"buffer":0,
			"byteLength":5947356,
			"byteOffset":5947356,
			"target":34962
		},
		{
			"buffer":0,
			"byteLength":3964904,
			"byteOffset":11894712,
			"target":34962
		},
		{
			"buffer":0,
			"byteLength":2973696,
			"byteOffset":15859616,
			"target":34963
		},
		{
			"buffer":0,
			"byteLength":160,
			"byteOffset":18833312
		},
		{
			"buffer":0,
			"byteLength":480,
			"byteOffset":18833472
		},
		{
			"buffer":0,
			"byteLength":8,
			"byteOffset":18833952
		},
		{
			"buffer":0,
			"byteLength":32,
			"byteOffset":18833960
		},
		{
			"buffer":0,
			"byteLength":24,
			"byteOffset":18833992
		}
	],
	"buffers":[
		{
			"byteLength":18834016,
			"uri":"animate.bin"
		}
	]
}
