{"asset":{"version":"2.0"},"buffers":[{"byteLength":108,"uri":"camera-control.bin"}],"bufferViews":[{"buffer":0,"byteOffset":0,"byteLength":36},{"buffer":0,"byteOffset":36,"byteLength":6},{"buffer":0,"byteOffset":76,"byteLength":8},{"buffer":0,"byteOffset":84,"byteLength":24}],"accessors":[{"bufferView":0,"componentType":5126,"count":3,"type":"VEC3"},{"bufferView":1,"componentType":5123,"count":3,"type":"SCALAR"},{"bufferView":2,"componentType":5126,"count":2,"type":"SCALAR","min":[0.0],"max":[1.0]},{"bufferView":3,"componentType":5126,"count":2,"type":"VEC3","min":[0.0,0.0,4.0],"max":[1.0,0.0,4.0]}],"meshes":[{"name":"FixtureMesh","primitives":[{"attributes":{"POSITION":0},"indices":1,"mode":4}]}],"nodes":[{"mesh":0,"name":"FixtureMeshNode"},{"name":"CameraControl","camera":0,"translation":[0.0,0.0,4.0]}],"scenes":[{"nodes":[0,1]}],"scene":0,"cameras":[{"name":"CameraLens","type":"perspective","perspective":{"yfov":0.7853982,"znear":0.1,"zfar":512.0}}],"animations":[{"name":"CameraTrack","samplers":[{"input":2,"output":3,"interpolation":"LINEAR"}],"channels":[{"sampler":0,"target":{"node":1,"path":"translation"}}]}]}