{
	"asset":{
		"generator":"Khronos glTF Blender I/O v4.5.48",
		"version":"2.0"
	},
	"scene":0,
	"scenes":[
		{
			"name":"Scene",
			"nodes":[
				0,
				1,
				2,
				3,
				4,
				5,
				6,
				7,
				8
			]
		}
	],
	"nodes":[
		{
			"mesh":0,
			"name":"Cube",
			"translation":[
				0,
				-0.39605557918548584,
				1.7769811153411865
			]
		},
		{
			"camera":0,
			"name":"Camera",
			"rotation":[
				-0.20997299253940582,
				0.3857799470424652,
				0.09062844514846802,
				0.8937962055206299
			],
			"translation":[
				7.358891487121582,
				4.958309173583984,
				6.925790786743164
			]
		},
		{
			"mesh":1,
			"name":"Cube.001",
			"translation":[
				0,
				-0.33579039573669434,
				-1.3046122789382935
			]
		},
		{
			"mesh":2,
			"name":"Cube.002",
			"translation":[
				0,
				0,
				0.1980130672454834
			]
		},
		{
			"mesh":3,
			"name":"\u7acb\u65b9\u4f53",
			"scale":[
				0.188559889793396,
				0.188559889793396,
				0.188559889793396
			],
			"translation":[
				0,
				4.100649356842041,
				0.16493597626686096
			]
		},
		{
			"mesh":4,
			"name":"\u5e73\u9762",
			"rotation":[
				-0.30712980031967163,
				0.016229325905442238,
				-0.10115952044725418,
				0.9461367130279541
			],
			"scale":[
				7.131824970245361,
				7.1318254470825195,
				7.131824970245361
			],
			"translation":[
				8.899746894836426,
				20.148818969726562,
				3.5632715225219727
			]
		},
		{
			"mesh":5,
			"name":"\u5e73\u9762.001",
			"rotation":[
				-0.7274765372276306,
				0.09358487278223038,
				-0.03382794186472893,
				0.678878128528595
			],
			"scale":[
				7.131825923919678,
				7.131825923919678,
				7.1318254470825195
			],
			"translation":[
				-1.8039679527282715,
				3.9009485244750977,
				16.086437225341797
			]
		},
		{
			"name":"\u6da1\u6d41",
			"translation":[
				-9.722557067871094,
				0,
				7.640432834625244
			]
		},
		{
			"name":"\u98ce\u529b",
			"rotation":[
				0.263113796710968,
				-0.18515881896018982,
				0.5862850546836853,
				0.7434764504432678
			],
			"translation":[
				-91.88165283203125,
				16.7830867767334,
				41.95938491821289
			]
		}
	],
	"cameras":[
		{
			"name":"Camera",
			"perspective":{
				"aspectRatio":1.7777777777777777,
				"yfov":0.39959652046304894,
				"zfar":100,
				"znear":0.10000000149011612
			},
			"type":"perspective"
		}
	],
	"materials":[
		{
			"doubleSided":true,
			"name":"Material",
			"pbrMetallicRoughness":{
				"baseColorFactor":[
					0.800000011920929,
					0.800000011920929,
					0.800000011920929,
					1
				],
				"metallicFactor":0,
				"roughnessFactor":0.5
			}
		}
	],
	"meshes":[
		{
			"name":"Mesh",
			"primitives":[
				{
					"attributes":{
						"POSITION":0,
						"NORMAL":1,
						"TEXCOORD_0":2
					},
					"indices":3,
					"material":0
				}
			]
		},
		{
			"name":"Mesh",
			"primitives":[
				{
					"attributes":{
						"POSITION":4,
						"NORMAL":5,
						"TEXCOORD_0":6
					},
					"indices":3,
					"material":0
				}
			]
		},
		{
			"name":"Mesh",
			"primitives":[
				{
					"attributes":{
						"POSITION":7,
						"NORMAL":8,
						"TEXCOORD_0":9
					},
					"indices":10,
					"material":0
				}
			]
		},
		{
			"name":"\u7acb\u65b9\u4f53",
			"primitives":[
				{
					"attributes":{
						"POSITION":11,
						"NORMAL":12,
						"TEXCOORD_0":13
					},
					"indices":14
				}
			]
		},
		{
			"name":"\u5e73\u9762",
			"primitives":[
				{
					"attributes":{
						"POSITION":15,
						"NORMAL":16,
						"TEXCOORD_0":17
					},
					"indices":18
				}
			]
		},
		{
			"name":"\u5e73\u9762.001",
			"primitives":[
				{
					"attributes":{
						"POSITION":19,
						"NORMAL":20,
						"TEXCOORD_0":21
					},
					"indices":18
				}
			]
		}
	],
	"accessors":[
		{
			"bufferView":0,
			"componentType":5126,
			"count":6144,
			"max":[
				0.8395062685012817,
				0.8395062685012817,
				0.8395062685012817
			],
			"min":[
				-0.8395062685012817,
				-0.8395062685012817,
				-0.8395062685012817
			],
			"type":"VEC3"
		},
		{
			"bufferView":1,
			"componentType":5126,
			"count":6144,
			"type":"VEC3"
		},
		{
			"bufferView":2,
			"componentType":5126,
			"count":6144,
			"type":"VEC2"
		},
		{
			"bufferView":3,
			"componentType":5123,
			"count":9216,
			"type":"SCALAR"
		},
		{
			"bufferView":4,
			"componentType":5126,
			"count":6144,
			"max":[
				0.8395062685012817,
				0.8395062685012817,
				0.8395062685012817
			],
			"min":[
				-0.8395062685012817,
				-0.8395062685012817,
				-0.8395062685012817
			],
			"type":"VEC3"
		},
		{
			"bufferView":5,
			"componentType":5126,
			"count":6144,
			"type":"VEC3"
		},
		{
			"bufferView":6,
			"componentType":5126,
			"count":6144,
			"type":"VEC2"
		},
		{
			"bufferView":7,
			"componentType":5126,
			"count":26624,
			"max":[
				0.8949716091156006,
				4.621325492858887,
				0.8949715495109558
			],
			"min":[
				-0.8949716091156006,
				-0.9386676549911499,
				-0.8949716091156006
			],
			"type":"VEC3"
		},
		{
			"bufferView":8,
			"componentType":5126,
			"count":26624,
			"type":"VEC3"
		},
		{
			"bufferView":9,
			"componentType":5126,
			"count":26624,
			"type":"VEC2"
		},
		{
			"bufferView":10,
			"componentType":5123,
			"count":39936,
			"type":"SCALAR"
		},
		{
			"bufferView":11,
			"componentType":5126,
			"count":24,
			"max":[
				1,
				1,
				1
			],
			"min":[
				-1,
				-1,
				-1
			],
			"type":"VEC3"
		},
		{
			"bufferView":12,
			"componentType":5126,
			"count":24,
			"type":"VEC3"
		},
		{
			"bufferView":13,
			"componentType":5126,
			"count":24,
			"type":"VEC2"
		},
		{
			"bufferView":14,
			"componentType":5123,
			"count":36,
			"type":"SCALAR"
		},
		{
			"bufferView":15,
			"componentType":5126,
			"count":4,
			"max":[
				1,
				0,
				1
			],
			"min":[
				-1,
				0,
				-1
			],
			"type":"VEC3"
		},
		{
			"bufferView":16,
			"componentType":5126,
			"count":4,
			"type":"VEC3"
		},
		{
			"bufferView":17,
			"componentType":5126,
			"count":4,
			"type":"VEC2"
		},
		{
			"bufferView":18,
			"componentType":5123,
			"count":6,
			"type":"SCALAR"
		},
		{
			"bufferView":19,
			"componentType":5126,
			"count":4,
			"max":[
				1,
				0,
				1
			],
			"min":[
				-1,
				0,
				-1
			],
			"type":"VEC3"
		},
		{
			"bufferView":20,
			"componentType":5126,
			"count":4,
			"type":"VEC3"
		},
		{
			"bufferView":21,
			"componentType":5126,
			"count":4,
			"type":"VEC2"
		}
	],
	"bufferViews":[
		{
			"buffer":0,
			"byteLength":73728,
			"byteOffset":0,
			"target":34962
		},
		{
			"buffer":0,
			"byteLength":73728,
			"byteOffset":73728,
			"target":34962
		},
		{
			"buffer":0,
			"byteLength":49152,
			"byteOffset":147456,
			"target":34962
		},
		{
			"buffer":0,
			"byteLength":18432,
			"byteOffset":196608,
			"target":34963
		},
		{
			"buffer":0,
			"byteLength":73728,
			"byteOffset":215040,
			"target":34962
		},
		{
			"buffer":0,
			"byteLength":73728,
			"byteOffset":288768,
			"target":34962
		},
		{
			"buffer":0,
			"byteLength":49152,
			"byteOffset":362496,
			"target":34962
		},
		{
			"buffer":0,
			"byteLength":319488,
			"byteOffset":411648,
			"target":34962
		},
		{
			"buffer":0,
			"byteLength":319488,
			"byteOffset":731136,
			"target":34962
		},
		{
			"buffer":0,
			"byteLength":212992,
			"byteOffset":1050624,
			"target":34962
		},
		{
			"buffer":0,
			"byteLength":79872,
			"byteOffset":1263616,
			"target":34963
		},
		{
			"buffer":0,
			"byteLength":288,
			"byteOffset":1343488,
			"target":34962
		},
		{
			"buffer":0,
			"byteLength":288,
			"byteOffset":1343776,
			"target":34962
		},
		{
			"buffer":0,
			"byteLength":192,
			"byteOffset":1344064,
			"target":34962
		},
		{
			"buffer":0,
			"byteLength":72,
			"byteOffset":1344256,
			"target":34963
		},
		{
			"buffer":0,
			"byteLength":48,
			"byteOffset":1344328,
			"target":34962
		},
		{
			"buffer":0,
			"byteLength":48,
			"byteOffset":1344376,
			"target":34962
		},
		{
			"buffer":0,
			"byteLength":32,
			"byteOffset":1344424,
			"target":34962
		},
		{
			"buffer":0,
			"byteLength":12,
			"byteOffset":1344456,
			"target":34963
		},
		{
			"buffer":0,
			"byteLength":48,
			"byteOffset":1344468,
			"target":34962
		},
		{
			"buffer":0,
			"byteLength":48,
			"byteOffset":1344516,
			"target":34962
		},
		{
			"buffer":0,
			"byteLength":32,
			"byteOffset":1344564,
			"target":34962
		}
	],
	"buffers":[
		{
			"byteLength":1344596,
			"uri":"emitter.bin"
		}
	]
}
